<svg width="12" height="12" viewBox="0 0 12 12" fill="none" xmlns="http://www.w3.org/2000/svg">
<path d="M6.62877 8.80909L10.6113 4.62934C10.6778 4.5596 10.7148 4.46694 10.7148 4.37059C10.7148 4.27424 10.6778 4.18158 10.6113 4.11184L10.6068 4.10734C10.5745 4.07341 10.5357 4.0464 10.4927 4.02794C10.4497 4.00948 10.4034 3.99996 10.3566 3.99996C10.3099 3.99996 10.2635 4.00948 10.2205 4.02794C10.1775 4.0464 10.1388 4.07341 10.1065 4.10734L6.35652 8.04334L2.60802 4.10734C2.57579 4.07341 2.537 4.0464 2.494 4.02794C2.451 4.00948 2.40469 3.99996 2.3579 3.99996C2.3111 3.99996 2.2648 4.00948 2.2218 4.02794C2.1788 4.0464 2.14 4.07341 2.10777 4.10734L2.10327 4.11184C2.03679 4.18158 1.9997 4.27424 1.9997 4.37059C1.9997 4.46694 2.03679 4.5596 2.10327 4.62934L6.08577 8.80909C6.1208 8.84585 6.16292 8.87511 6.20959 8.89511C6.25626 8.9151 6.3065 8.92542 6.35727 8.92542C6.40804 8.92542 6.45829 8.9151 6.50496 8.89511C6.55163 8.87511 6.59375 8.84585 6.62877 8.80909Z" fill="black"/>
</svg>
